<svg width="152" height="59" viewBox="0 0 152 59" fill="none" xmlns="http://www.w3.org/2000/svg">
<path d="M43.5068 34.0319L22.0868 58.4072L22.2534 22.0401L43.5068 34.0319Z" fill="url(#paint0_linear)" stroke="#D45500" stroke-width="0.264583"/>
<path d="M1 34.0319L22.0868 58.4072L22.2534 22.0401L1 34.0319Z" fill="url(#paint1_linear)" stroke="#AA4400" stroke-width="0.264583"/>
<path d="M22.2534 22.0401L11.6267 28.036L1 34.0319L1.12075 21.831L1.24149 9.63004L11.7474 15.8351L22.2534 22.0401Z" fill="url(#paint2_linear)" stroke="#FF6600" stroke-width="0.264583"/>
<path d="M22.2534 22.0401L32.8801 28.036L43.5068 34.0319L43.386 21.831L43.2653 9.63004L32.7593 15.8351L22.2534 22.0401Z" fill="url(#paint3_linear)" stroke="#FF6600" stroke-width="0.264583"/>
<path d="M1 34.0319L22.2534 22.0401L43.5068 34.0319L19.828 34.0319H1Z" fill="url(#paint4_linear)"/>
<path d="M1.11105 22.0717L22.2534 22.0401L1.24148 9.63L1.11105 22.0717Z" fill="url(#paint5_linear)"/>
<path d="M43.3957 22.0718L22.2534 22.0401L43.2653 9.63004L43.3957 22.0718Z" fill="url(#paint6_linear)"/>
<path d="M22.1392 50.8489L26.293 53.5307L22.0868 58.4072L17.7699 53.4306L22.1392 50.8489Z" fill="black"/>
<path d="M15.5554 27.3269L13.9505 30.1062L12.3456 32.8854L10.7412 30.1059L9.13677 27.3264L12.3461 27.3267L15.5554 27.3269Z" fill="black"/>
<path d="M32.7415 32.9258L34.2715 30.1046L35.8015 27.2835L32.5933 27.3691L29.3851 27.4546L31.0633 30.1902L32.7415 32.9258Z" fill="black"/>
<path d="M59.7844 21.301H49.6179V32H46.4231V7.77324H61.4317V10.4022H49.6179V18.6886H59.7844V21.301ZM63.5948 22.8318C63.5948 21.068 63.9387 19.4817 64.6265 18.0729C65.3253 16.6641 66.2904 15.5771 67.5217 14.8116C68.7641 14.0462 70.1784 13.6635 71.7647 13.6635C74.2162 13.6635 76.1963 14.5121 77.7049 16.2093C79.2246 17.9065 79.9845 20.1639 79.9845 22.9815V23.1978C79.9845 24.9505 79.6462 26.5257 78.9695 27.9234C78.3039 29.31 77.3444 30.3915 76.0909 31.168C74.8485 31.9445 73.4175 32.3328 71.798 32.3328C69.3576 32.3328 67.3775 31.4842 65.8578 29.787C64.3491 28.0898 63.5948 25.8435 63.5948 23.0481V22.8318ZM66.6897 23.1978C66.6897 25.1945 67.1501 26.7975 68.0708 28.0066C69.0026 29.2157 70.245 29.8203 71.798 29.8203C73.3621 29.8203 74.6045 29.2102 75.5252 27.9899C76.4459 26.7586 76.9062 25.0392 76.9062 22.8318C76.9062 20.8572 76.4348 19.2599 75.4919 18.0397C74.5601 16.8084 73.3177 16.1927 71.7647 16.1927C70.245 16.1927 69.0192 16.7973 68.0874 18.0064C67.1556 19.2155 66.6897 20.946 66.6897 23.1978ZM89.5188 20.5688L93.5122 13.9963H97.1063L91.216 22.8983L97.2893 32H93.7285L89.5687 25.2611L85.4089 32H81.8315L87.9048 22.8983L82.0145 13.9963H85.5753L89.5188 20.5688Z" fill="#FF6600"/>
<path d="M104.561 9.63684V13.9963H107.922V16.3757H104.561V27.5407C104.561 28.2617 104.71 28.8053 105.01 29.1713C105.309 29.5263 105.82 29.7038 106.541 29.7038C106.896 29.7038 107.384 29.6372 108.005 29.5041V32C107.195 32.2219 106.408 32.3328 105.642 32.3328C104.267 32.3328 103.23 31.9168 102.531 31.0848C101.832 30.2529 101.482 29.0715 101.482 27.5407V16.3757H98.2045V13.9963H101.482V9.63684H104.561ZM120.235 16.7584C119.769 16.6808 119.264 16.642 118.721 16.642C116.702 16.642 115.332 17.5017 114.611 19.221V32H111.533V13.9963H114.528L114.578 16.0762C115.587 14.4678 117.018 13.6635 118.87 13.6635C119.469 13.6635 119.924 13.7412 120.235 13.8965V16.7584ZM121.932 22.8318C121.932 21.068 122.276 19.4817 122.964 18.0729C123.663 16.6641 124.628 15.5771 125.859 14.8116C127.101 14.0462 128.516 13.6635 130.102 13.6635C132.553 13.6635 134.534 14.5121 136.042 16.2093C137.562 17.9065 138.322 20.1639 138.322 22.9815V23.1978C138.322 24.9505 137.983 26.5257 137.307 27.9234C136.641 29.31 135.682 30.3915 134.428 31.168C133.186 31.9445 131.755 32.3328 130.135 32.3328C127.695 32.3328 125.715 31.4842 124.195 29.787C122.686 28.0898 121.932 25.8435 121.932 23.0481V22.8318ZM125.027 23.1978C125.027 25.1945 125.487 26.7975 126.408 28.0066C127.34 29.2157 128.582 29.8203 130.135 29.8203C131.699 29.8203 132.942 29.2102 133.862 27.9899C134.783 26.7586 135.243 25.0392 135.243 22.8318C135.243 20.8572 134.772 19.2599 133.829 18.0397C132.897 16.8084 131.655 16.1927 130.102 16.1927C128.582 16.1927 127.356 16.7973 126.425 18.0064C125.493 19.2155 125.027 20.946 125.027 23.1978ZM146.359 9.63684V13.9963H149.72V16.3757H146.359V27.5407C146.359 28.2617 146.508 28.8053 146.808 29.1713C147.107 29.5263 147.618 29.7038 148.339 29.7038C148.694 29.7038 149.182 29.6372 149.803 29.5041V32C148.993 32.2219 148.205 32.3328 147.44 32.3328C146.065 32.3328 145.027 31.9168 144.329 31.0848C143.63 30.2529 143.28 29.0715 143.28 27.5407V16.3757H140.002V13.9963H143.28V9.63684H146.359Z" fill="white"/>
<defs>
<linearGradient id="paint0_linear" x1="32.7415" y1="32.9258" x2="26.293" y2="53.5307" gradientUnits="userSpaceOnUse">
<stop stop-color="#D45500"/>
<stop offset="1" stop-color="#D45500" stop-opacity="0"/>
</linearGradient>
<linearGradient id="paint1_linear" x1="12.3457" y1="32.8854" x2="22.1392" y2="50.8489" gradientUnits="userSpaceOnUse">
<stop stop-color="#D45500"/>
<stop offset="1" stop-color="#FFE6D5"/>
</linearGradient>
<linearGradient id="paint2_linear" x1="12.7656" y1="29.9904" x2="1.11106" y2="22.0717" gradientUnits="userSpaceOnUse">
<stop stop-color="#D45500"/>
<stop offset="1" stop-color="#FF6600"/>
</linearGradient>
<linearGradient id="paint3_linear" x1="31.2093" y1="26.9843" x2="43.3957" y2="22.0718" gradientUnits="userSpaceOnUse">
<stop stop-color="#D45500"/>
<stop offset="1" stop-color="#FF7F2A"/>
</linearGradient>
<linearGradient id="paint4_linear" x1="23.3335" y1="32.3848" x2="22.2534" y2="22.0401" gradientUnits="userSpaceOnUse">
<stop stop-color="#FFB380"/>
<stop offset="1" stop-color="#D45500"/>
</linearGradient>
<linearGradient id="paint5_linear" x1="1.91446" y1="11.5226" x2="15.2246" y2="20.9866" gradientUnits="userSpaceOnUse">
<stop stop-color="#FF7F2A"/>
<stop offset="1" stop-color="#AA4400"/>
</linearGradient>
<linearGradient id="paint6_linear" x1="42.5923" y1="11.5226" x2="29.2822" y2="20.9866" gradientUnits="userSpaceOnUse">
<stop stop-color="#FF7F2A"/>
<stop offset="1" stop-color="#AA4400"/>
</linearGradient>
</defs>
</svg>
